<?xml version="1.0" standalone="no"?>
<!DOCTYPE svg PUBLIC "-//W3C//DTD SVG 20010904//EN"
 "http://www.w3.org/TR/2001/REC-SVG-20010904/DTD/svg10.dtd">
<svg version="1.0" xmlns="http://www.w3.org/2000/svg"
 width="76.000000pt" height="65.000000pt" viewBox="0 0 76.000000 65.000000"
 preserveAspectRatio="xMidYMid meet">
<metadata>
Created by potrace 1.16, written by Peter Selinger 2001-2019
</metadata>
<g transform="translate(0.000000,65.000000) scale(0.100000,-0.100000)"
fill="#000000" stroke="none">
<path d="M83 555 c7 -14 18 -25 25 -25 16 0 16 -52 0 -68 -7 -7 -8 -12 -2 -12
5 0 3 -58 -8 -147 -9 -82 -17 -161 -17 -178 -1 -30 -1 -30 246 -27 156 2 248
-1 252 -7 4 -5 12 -7 18 -3 9 5 12 71 14 225 1 217 1 217 -25 238 -14 11 -26
16 -26 11 0 -6 6 -13 13 -15 6 -3 -63 -6 -155 -6 -162 -1 -167 0 -183 22 -16
22 -16 22 -57 0 -31 -18 -44 -20 -54 -12 -11 9 -14 8 -15 -2 0 -8 -5 -4 -11 9
-6 12 -14 22 -19 22 -4 0 -2 -11 4 -25z m127 -70 c0 -30 3 -35 23 -34 12 0 16
3 10 6 -7 2 -13 18 -13 34 0 29 0 29 165 29 158 0 165 -1 165 -20 0 -13 7 -20
20 -20 19 0 20 -7 20 -165 0 -158 -1 -165 -20 -165 -13 0 -20 -7 -20 -20 0
-19 -7 -20 -235 -20 -236 0 -236 0 -231 33 3 17 13 97 22 177 15 141 26 182
40 147 3 -9 13 -17 21 -17 13 0 13 3 -1 25 -22 34 -20 45 9 45 22 0 25 -4 25
-35z"/>
<path d="M11 546 c-7 -8 -11 -32 -9 -53 3 -34 6 -38 32 -41 29 -4 55 12 42 25
-4 4 -11 1 -16 -7 -7 -11 -14 -12 -27 -4 -33 20 -26 34 16 34 45 0 54 16 25
44 -19 20 -48 21 -63 2z m49 -21 c11 -13 8 -15 -19 -15 -30 0 -39 9 -24 23 11
11 30 8 43 -8z"/>
<path d="M21 80 c0 -26 2 -31 9 -20 8 12 11 13 19 1 6 -9 8 -5 8 15 0 16 -2
23 -4 17 -7 -19 -21 -16 -26 5 -3 9 -5 1 -6 -18z"/>
</g>
</svg>
